<?xml version='1.0' encoding='utf-8'?>
<!DOCTYPE svg PUBLIC '-//W3C//DTD SVG 1.1//EN' 'http://www.w3.org/Graphics/SVG/1.1/DTD/svg11.dtd'>
<svg version="1.1" xmlns="http://www.w3.org/2000/svg" viewBox="0 0 1600 1600" xmlns:xlink="http://www.w3.org/1999/xlink" enable-background="new 0 0 512 512">
    <rect width="100%" height="100%" fill="#ED7602"/>
    <g transform="translate(200.000000,1440.000000) scale(0.100000,-0.100000)"
       fill="#000000" stroke="none">
        <path style="fill:#ffffff;" d="M5404 12371 c-69 -42 -64 144 -64 -2468 0 -2606 -5 -2407 64 -2456
            l31 -22 650 0 650 0 31 22 c69 49 64 -150 64 2460 l0 2357 -21 42 c-11 24 -35
            52 -53 64 -33 20 -47 20 -677 20 -616 0 -645 -1 -675 -19z"/>
        <path style="fill:#ffffff;" d="M4675 10880 c-61 -12 -383 -121 -535 -181 -155 -61 -478 -219 -637
            -310 -428 -247 -877 -600 -1173 -925 -401 -439 -676 -847 -912 -1352 -230
            -492 -383 -1048 -444 -1622 -22 -204 -25 -728 -6 -925 36 -368 93 -670 187
            -990 345 -1171 1116 -2189 2160 -2852 1459 -927 3302 -1058 4893 -349 792 354
            1514 935 2028 1636 801 1090 1125 2411 923 3760 -167 1116 -765 2215 -1614
            2969 -571 507 -1151 841 -1875 1079 -190 63 -241 73 -278 55 -25 -12 -33 -24
            -41 -64 -15 -70 -15 -1504 0 -1564 6 -24 21 -53 34 -65 13 -12 110 -65 216
            -118 227 -114 351 -190 535 -327 513 -384 903 -895 1137 -1490 113 -288 177
            -545 219 -885 17 -137 17 -591 0 -730 -75 -611 -265 -1112 -607 -1602 -119
            -170 -384 -461 -550 -604 -778 -670 -1789 -964 -2785 -809 -958 148 -1805 696
            -2335 1510 -660 1012 -736 2306 -201 3385 281 566 705 1036 1241 1378 66 42
            214 124 330 182 179 90 212 110 230 140 20 34 20 48 20 815 0 727 -1 783 -17
            808 -30 44 -77 59 -143 47z"/>
   </g>
    <!--<g transform="translate(40.000000,240.000000) scale(0.4,-0.4)">
      <path  style="fill:#444444;" d="m501,328.1c0-68.7-60.2-126.4-140.6-140.1 3.4-11.3 5.1-22.5 5.1-33.8 0-78.8-79.3-143.2-177.3-143.2s-177.2,64.4-177.2,143.2c0,35.8 15.6,68.5 44.8,95.1l-32.3,77.7 98-39.9c9.5,2.9 19.5,5.2 30,7.1-3.3,10.9-5,22.2-5,33.8 0,78.8 79.2,143.2 177.2,143.2 22.9,0 44.8-3.1 66.7-10.2l98,39.9-32.3-77.7c29.3-26.5 44.9-60.3 44.9-95.1zm-379.5-62.4l-59.4,23.5 18.8-45c0,0-49-33.1-49-89 0-67.5 69.9-122.8 156.4-122.8s156.4,55.2 158.5,121.7c0,11.1-2,21.3-5.1,31.4-5.9-0.5-11.8-0.7-17.8-0.7-74.6,0-138.2,37.3-164.4,89.8-12-1-38-8.9-38-8.9zm268.9,174c-19.9,8-43.7,12.2-65.6,12.2-86.5,0-156.4-55.2-156.4-122.8 0-67.5 69.9-122.8 156.4-122.8s156.4,55.2 156.4,122.8c0,55.7-49,89-49,89l18.8,45-60.6-23.4z"/>
    </g>-->
</svg>