<svg xmlns="http://www.w3.org/2000/svg" xmlns:xlink="http://www.w3.org/1999/xlink" version="1.1" width="256" height="256" viewBox="0 0 256 256" xml:space="preserve">

<defs>
</defs>
<g style="stroke: none; stroke-width: 0; stroke-dasharray: none; stroke-linecap: butt; stroke-linejoin: miter; stroke-miterlimit: 10; fill: none; fill-rule: nonzero; opacity: 1;" transform="translate(1.4065934065934016 1.4065934065934016) scale(1 1)" >
	<circle cx="45" cy="45" r="45" style="stroke: none; stroke-width: 1; stroke-dasharray: none; stroke-linecap: butt; stroke-linejoin: miter; stroke-miterlimit: 10; fill: rgb(198,38,38); fill-rule: nonzero; opacity: 1;" transform="  matrix(1 0 0 1 0 0) "/>
	<path d="M 45 50.345 c -1.657 0 -3 -1.343 -3 -3 V 15 c 0 -1.657 1.343 -3 3 -3 c 1.657 0 3 1.343 3 3 v 32.345 C 48 49.002 46.657 50.345 45 50.345 z" style="stroke: none; stroke-width: 1; stroke-dasharray: none; stroke-linecap: butt; stroke-linejoin: miter; stroke-miterlimit: 10; fill: rgb(255,255,255); fill-rule: nonzero; opacity: 1;" transform=" matrix(1 0 0 1 0 0) " stroke-linecap="round" />
	<path d="M 45 78 c -16.962 0 -30.762 -13.8 -30.762 -30.763 c 0 -11.843 6.617 -22.435 17.27 -27.643 c 1.489 -0.728 3.285 -0.11 4.013 1.378 c 0.728 1.488 0.111 3.285 -1.378 4.013 c -8.577 4.193 -13.905 12.719 -13.905 22.252 C 20.238 60.892 31.346 72 45 72 c 13.654 0 24.763 -11.108 24.763 -24.763 c 0 -9.533 -5.328 -18.059 -13.905 -22.252 c -1.488 -0.728 -2.105 -2.524 -1.378 -4.013 c 0.728 -1.489 2.526 -2.104 4.013 -1.378 c 10.653 5.208 17.271 15.799 17.271 27.643 C 75.763 64.2 61.963 78 45 78 z" style="stroke: none; stroke-width: 1; stroke-dasharray: none; stroke-linecap: butt; stroke-linejoin: miter; stroke-miterlimit: 10; fill: rgb(255,255,255); fill-rule: nonzero; opacity: 1;" transform=" matrix(1 0 0 1 0 0) " stroke-linecap="round" />
</g>
</svg>